<?xml version="1.0" encoding="UTF-8" standalone="no"?>
<!-- Created with Inkscape (http://www.inkscape.org/) -->

<svg
   width="16"
   height="16"
   viewBox="0 0 4.2333333 4.2333333"
   version="1.1"
   id="svg932"
   inkscape:version="1.1.2 (b8e25be833, 2022-02-05)"
   sodipodi:docname="logo.svg"
   xmlns:inkscape="http://www.inkscape.org/namespaces/inkscape"
   xmlns:sodipodi="http://sodipodi.sourceforge.net/DTD/sodipodi-0.dtd"
   xmlns:xlink="http://www.w3.org/1999/xlink"
   xmlns="http://www.w3.org/2000/svg"
   xmlns:svg="http://www.w3.org/2000/svg">
  <sodipodi:namedview
     id="namedview934"
     pagecolor="#ffffff"
     bordercolor="#666666"
     borderopacity="1.0"
     inkscape:pageshadow="2"
     inkscape:pageopacity="0.0"
     inkscape:pagecheckerboard="0"
     inkscape:document-units="mm"
     showgrid="false"
     inkscape:zoom="26.245328"
     inkscape:cx="10.74477"
     inkscape:cy="7.9252202"
     inkscape:window-width="1600"
     inkscape:window-height="837"
     inkscape:window-x="-8"
     inkscape:window-y="-8"
     inkscape:window-maximized="1"
     inkscape:current-layer="layer1"
     units="px" />
  <defs
     id="defs929">
    <linearGradient
       inkscape:collect="always"
       xlink:href="#linearGradient6225"
       id="linearGradient9471"
       gradientUnits="userSpaceOnUse"
       gradientTransform="translate(0.84332664,-1.1405336)"
       x1="26.052778"
       y1="198.21953"
       x2="188.18538"
       y2="75.615509" />
    <linearGradient
       inkscape:collect="always"
       id="linearGradient6225">
      <stop
         style="stop-color:#002c6e;stop-opacity:1"
         offset="0"
         id="stop6221" />
      <stop
         style="stop-color:#85c8ff;stop-opacity:1"
         offset="1"
         id="stop6223" />
    </linearGradient>
  </defs>
  <g
     inkscape:label="Livello 1"
     inkscape:groupmode="layer"
     id="layer1">
    <g
       id="g1034"
       transform="matrix(0.02235389,0,0,0.02235389,-0.24934315,-0.800052)">
      <circle
         style="fill:#ffffff;fill-opacity:1;stroke:#000000;stroke-width:0;stroke-linecap:round;stroke-linejoin:round;stroke-miterlimit:4;stroke-dasharray:none"
         id="circle9463"
         cx="105.84332"
         cy="130.47926"
         r="94.688972"
         inkscape:export-filename="C:\Users\Martino\Documents\formazione\università\Magistrale\2021-2022\secondo semestre\immagini_fotorealistiche\logo\logo1.png"
         inkscape:export-xdpi="67.061661"
         inkscape:export-ydpi="67.061661" />
      <circle
         style="fill:url(#linearGradient9471);fill-opacity:1;stroke:#000000;stroke-width:0;stroke-linecap:round;stroke-linejoin:round;stroke-miterlimit:4;stroke-dasharray:none"
         id="circle9465"
         cx="105.84332"
         cy="130.47926"
         r="94.688972"
         inkscape:export-filename="C:\Users\Martino\Documents\formazione\università\Magistrale\2021-2022\secondo semestre\immagini_fotorealistiche\logo\logo1.png"
         inkscape:export-xdpi="67.061661"
         inkscape:export-ydpi="67.061661" />
      <path
         style="fill:#ffffff;fill-opacity:1;stroke:#000000;stroke-width:0;stroke-linecap:butt;stroke-linejoin:miter;stroke-miterlimit:4;stroke-dasharray:none;stroke-opacity:1"
         d="m 139.5477,181.9184 c 2.93848,-21.18365 24.65186,-18.63007 23.84717,-31.95596 0.075,-7.53324 -10.47756,-15.96847 -19.92334,-19.97435 -14.19302,-6.01915 30.58411,32.68557 -23.71422,40.88312 -14.47642,2.11803 -42.061133,2.27393 -59.165883,-7.88971 -20.30327,-12.06421 -33.44162,-29.22854 -29.61487,-57.27597 5.65929,-41.478531 57.05172,-61.815911 103.165903,-49.205711 14.59989,3.99243 41.58255,21.47983 41.65482,49.484111 -9.1396,-20.512151 -42.59602,-33.194101 -61.01971,-31.331741 -22.238803,2.24802 -49.184913,10.20574 -48.599843,42.224771 0.53928,29.51343 37.050373,36.6777 59.129693,29.18151 21.28182,-7.49591 -33.638093,-36.24741 6.86861,-32.69998 24.27607,2.12602 44.88006,26.85942 43.69865,44.11351 1.09904,19.19963 -22.35263,4.22326 -36.32698,24.4464 z"
         id="path9467"
         sodipodi:nodetypes="ccscssscsscscc"
         inkscape:export-filename="C:\Users\Martino\Documents\formazione\università\Magistrale\2021-2022\secondo semestre\immagini_fotorealistiche\logo\logo1.png"
         inkscape:export-xdpi="67.061661"
         inkscape:export-ydpi="67.061661" />
      <path
         style="fill:#f2a500;fill-opacity:1;stroke:#000000;stroke-width:0;stroke-linecap:butt;stroke-linejoin:miter;stroke-miterlimit:4;stroke-dasharray:none;stroke-opacity:1"
         d="m 101.47613,207.37182 c 0,0 5.31712,-1.21685 10.02883,-3.4694 4.71171,-2.25254 13.93097,-8.28172 18.06146,-10.75197 4.13045,-2.47027 3.42743,-2.03275 5.319,-3.25569 1.89158,-1.22295 3.09077,-0.95869 4.89507,-2.08651 0.94152,-0.58848 1.67995,-1.03318 1.35472,-2.78511 -2.04227,-0.50383 -2.79919,-0.63777 -3.92191,-1.04124 -1.12269,-0.40346 0,0 -2.81954,-1.29145 -3.54757,0.99113 -8.32698,2.40302 -11.88872,3.21656 -3.56177,0.81356 -4.6999,1.43886 -7.89592,0.49364 -3.19599,-0.94526 -4.08735,-2.4807 -5.54269,-2.97543 -1.45534,-0.49474 -1.55432,-0.4556 -3.14135,-0.59411 -1.587,-0.13843 -4.14321,0.16165 -6.375193,0.0814 -2.23198,-0.0804 -4.41683,-0.25996 -7.0035,-0.59541 -2.58667,-0.33546 -6.18785,-0.64711 -8.49713,-1.4855 -2.40177,0.4312 -3.85041,1.81307 -5.65627,3.2347 -0.10819,-4.21163 0.30339,-4.40156 -1.04868,-6.99985 -1.35196,-2.59828 -4.06558,-3.24108 -8.49911,-3.31888 -4.43353,-0.0778 -9.49016,1.14456 -9.77656,5.84767 -0.28647,4.70306 0.78687,6.51627 4.44636,8.72578 3.65948,2.20954 4.65489,2.4519 9.30088,4.40502 -0.9487,2.48158 -1.40524,4.31737 -0.0114,5.73823 1.39382,1.42087 3.88214,1.70696 5.96663,-0.98355 1.09898,2.7205 3.54398,5.31715 8.05604,8.47227 -3.32472,2.16094 -6.26162,3.46869 -5.24568,5.97033 1.01956,2.54236 3.75358,5.02429 10.60017,6.10242 4.03549,0.30281 13.696753,0.28031 13.183073,-5.09999 -0.19801,-2.07369 -3.88859,-5.55385 -3.88859,-5.55385 z"
         id="path9469"
         sodipodi:nodetypes="czzzsczcczzzzzcczzzzczccccsc"
         inkscape:export-filename="C:\Users\Martino\Documents\formazione\università\Magistrale\2021-2022\secondo semestre\immagini_fotorealistiche\logo\logo1.png"
         inkscape:export-xdpi="67.061661"
         inkscape:export-ydpi="67.061661" />
    </g>
  </g>
</svg>
